<svg width="140" height="66" viewBox="0 0 140 66" fill="none" xmlns="http://www.w3.org/2000/svg">
<path d="M68.1455 35.4848L72.722 37.8558C71.7651 39.1044 70.5655 40.1072 69.1232 40.8643C67.6809 41.6214 66.1069 42 64.4011 42C62.4873 42 60.7399 41.5285 59.159 40.5854C57.5919 39.6423 56.3368 38.3805 55.3937 36.7998C54.4646 35.2059 54 33.4459 54 31.5199C54 30.0588 54.2704 28.6973 54.8113 27.4355C55.3521 26.1603 56.0941 25.0446 57.0371 24.0882C57.994 23.1186 59.1035 22.3615 60.3655 21.8169C61.6275 21.2723 62.9727 21 64.4011 21C66.1069 21 67.6809 21.3786 69.1232 22.1357C70.5655 22.8928 71.7651 23.9089 72.722 25.1841L68.1455 27.5351C67.6601 27.0038 67.0846 26.592 66.4189 26.2998C65.7671 26.0076 65.0945 25.8615 64.4011 25.8615C63.4026 25.8615 62.5012 26.1271 61.6968 26.6584C60.8925 27.1765 60.2545 27.8672 59.783 28.7305C59.3115 29.5806 59.0757 30.5104 59.0757 31.5199C59.0757 32.5161 59.3115 33.4459 59.783 34.3093C60.2545 35.1594 60.8925 35.8435 61.6968 36.3615C62.5012 36.8795 63.4026 37.1385 64.4011 37.1385C65.1223 37.1385 65.8087 36.9924 66.4605 36.7002C67.1123 36.3947 67.674 35.9896 68.1455 35.4848Z" fill="#101010"/>
<path d="M84.9596 42C83.0458 42 81.2984 41.5285 79.7174 40.5854C78.1503 39.6423 76.8952 38.3805 75.9522 36.7998C75.023 35.2059 74.5585 33.4459 74.5585 31.5199C74.5585 30.0588 74.8289 28.6973 75.3697 27.4355C75.9106 26.1603 76.6525 25.0446 77.5956 24.0882C78.5525 23.1186 79.6619 22.3615 80.9239 21.8169C82.1859 21.2723 83.5312 21 84.9596 21C86.8734 21 88.6138 21.4715 90.1809 22.4146C91.7619 23.3577 93.017 24.6262 93.9461 26.2201C94.8892 27.814 95.3607 29.5806 95.3607 31.5199C95.3607 32.9677 95.0903 34.3226 94.5494 35.5844C94.0085 36.8463 93.2597 37.962 92.3028 38.9317C91.3597 39.888 90.2572 40.6385 88.9952 41.1831C87.7471 41.7277 86.4019 42 84.9596 42ZM84.9596 37.1385C85.9719 37.1385 86.8803 36.8795 87.6847 36.3615C88.489 35.8435 89.12 35.1594 89.5777 34.3093C90.0492 33.4592 90.2849 32.5294 90.2849 31.5199C90.2849 30.4839 90.0423 29.5408 89.5569 28.6907C89.0854 27.8273 88.4405 27.1433 87.6223 26.6385C86.8179 26.1205 85.9303 25.8615 84.9596 25.8615C83.9611 25.8615 83.0596 26.1205 82.2553 26.6385C81.4509 27.1565 80.813 27.8472 80.3415 28.7106C79.87 29.574 79.6342 30.5104 79.6342 31.5199C79.6342 32.5693 79.8769 33.519 80.3623 34.3691C80.8477 35.2192 81.4925 35.8966 82.2969 36.4013C83.1151 36.8928 84.0027 37.1385 84.9596 37.1385Z" fill="#101010"/>
<path d="M111.578 35.4848L116.155 37.8558C115.198 39.1044 113.998 40.1072 112.556 40.8643C111.114 41.6214 109.54 42 107.834 42C105.92 42 104.173 41.5285 102.592 40.5854C101.025 39.6423 99.7696 38.3805 98.8265 36.7998C97.8974 35.2059 97.4328 33.4459 97.4328 31.5199C97.4328 30.0588 97.7032 28.6973 98.2441 27.4355C98.7849 26.1603 99.5269 25.0446 100.47 24.0882C101.427 23.1186 102.536 22.3615 103.798 21.8169C105.06 21.2723 106.405 21 107.834 21C109.54 21 111.114 21.3786 112.556 22.1357C113.998 22.8928 115.198 23.9089 116.155 25.1841L111.578 27.5351C111.093 27.0038 110.517 26.592 109.852 26.2998C109.2 26.0076 108.527 25.8615 107.834 25.8615C106.835 25.8615 105.934 26.1271 105.13 26.6584C104.325 27.1765 103.687 27.8672 103.216 28.7305C102.744 29.5806 102.509 30.5104 102.509 31.5199C102.509 32.5161 102.744 33.4459 103.216 34.3093C103.687 35.1594 104.325 35.8435 105.13 36.3615C105.934 36.8795 106.835 37.1385 107.834 37.1385C108.555 37.1385 109.242 36.9924 109.893 36.7002C110.545 36.3947 111.107 35.9896 111.578 35.4848Z" fill="#101010"/>
<path d="M134.924 21.5579H140V41.482H134.924L134.695 39.0114C134.127 39.9013 133.371 40.6252 132.428 41.1831C131.499 41.7277 130.396 42 129.12 42C127.581 42 126.139 41.7211 124.794 41.1632C123.448 40.6053 122.263 39.8349 121.236 38.852C120.224 37.8691 119.427 36.7334 118.844 35.445C118.276 34.1565 117.991 32.7751 117.991 31.3008C117.991 29.8795 118.262 28.5446 118.803 27.296C119.357 26.0474 120.127 24.9516 121.112 24.0085C122.096 23.0655 123.233 22.3283 124.523 21.797C125.813 21.2657 127.2 21 128.684 21C130.057 21 131.284 21.2922 132.366 21.8767C133.461 22.4611 134.39 23.2049 135.153 24.1082L134.924 21.5579ZM128.996 37.3178C130.077 37.3178 131.034 37.0588 131.866 36.5408C132.698 36.0228 133.35 35.3254 133.822 34.4488C134.293 33.5588 134.529 32.5825 134.529 31.5199C134.529 30.444 134.293 29.4677 133.822 28.5911C133.35 27.7011 132.691 26.9972 131.846 26.4791C131.013 25.9611 130.063 25.7021 128.996 25.7021C127.928 25.7021 126.95 25.9677 126.063 26.4991C125.189 27.0171 124.488 27.7144 123.961 28.5911C123.448 29.4677 123.192 30.444 123.192 31.5199C123.192 32.5958 123.455 33.5721 123.982 34.4488C124.509 35.3254 125.21 36.0228 126.083 36.5408C126.971 37.0588 127.942 37.3178 128.996 37.3178Z" fill="#101010"/>
<circle cx="21" cy="30.5" r="21" fill="#101010"/>
<path d="M27.4483 35.4412L32 37.741C30.8906 39.1831 29.4794 40.3368 27.7664 41.2021C26.0697 42.0674 24.2262 42.5 22.2358 42.5C19.9844 42.5 17.9288 41.9611 16.069 40.8833C14.2254 39.8055 12.749 38.3634 11.6396 36.5569C10.5465 34.7353 10 32.7239 10 30.5228C10 28.8529 10.3181 27.297 10.9544 25.8548C11.5907 24.3975 12.4635 23.1224 13.5729 22.0294C14.6986 20.9213 16.0037 20.056 17.4883 19.4336C18.9729 18.8112 20.5554 18.5 22.2358 18.5C24.2262 18.5 26.0697 18.9326 27.7664 19.7979C29.4794 20.6632 30.8906 21.8245 32 23.2818L27.4483 25.5816C26.7631 24.8226 25.9637 24.2457 25.0501 23.851C24.1364 23.4412 23.1984 23.2362 22.2358 23.2362C20.898 23.2362 19.6826 23.5778 18.5895 24.2609C17.5128 24.9288 16.6563 25.8169 16.02 26.925C15.4001 28.018 15.0901 29.2173 15.0901 30.5228C15.0901 31.8131 15.4082 33.0123 16.0445 34.1205C16.6808 35.2135 17.5373 36.0939 18.614 36.7619C19.7071 37.4298 20.9143 37.7638 22.2358 37.7638C23.2473 37.7638 24.2099 37.5512 25.1235 37.1262C26.0371 36.7011 26.812 36.1395 27.4483 35.4412Z" fill="white"/>
</svg>
